# xmcd
#
# Track frame offsets:
#	150
#	18338
#	36976
#	55567
#	76139
#	90822
#	110091
#	127352
#	147507
#	163173
#	178318
#	195640
#	212207
#	228761
#	248504
#
# Disc length: 3685 seconds
#
# Revision: 0
# Processed by: cddbd v1.5.2PL0 Copyright (c) Steve Scherf et al.
# Submitted via: audiograbber 1.83.01
#
DISCID=cb0e630f
DTITLE=Sound Choice - Country Hits - Vol. 180 SC8931
DYEAR=1900
DGENRE=Karaoke
TTITLE0=Toby Keith - As Good As I Once Was
TTITLE1=Carrie Underwood - Inside Your Heaven (Country Version)
TTITLE2=Faith Hill - Mississippi Girl
TTITLE3=Brad Paisley - Alcohol
TTITLE4=Erika Jo - I Break Things
TTITLE5=Van Zant - Help Somebody
TTITLE6=Mindy Smith - One Moment More
TTITLE7=Montgomery Gentry - Something To Be Proud Of
TTITLE8=Brooks and Dunn - Play Something Country
TTITLE9=Keith Anderson - Pickin' Wildflowers
TTITLE10=Kenny Chesney - Keg In The Closet
TTITLE11=Blaine Larsen - The Best Man
TTITLE12=Jeff Bates - Long Slow Kisses
TTITLE13=Josh Gracin - Stay With Me (Brass Bed)
TTITLE14=Trisha Yearwood - Georgia Rain
EXTD=
EXTT0=
EXTT1=
EXTT2=
EXTT3=
EXTT4=
EXTT5=
EXTT6=
EXTT7=
EXTT8=
EXTT9=
EXTT10=
EXTT11=
EXTT12=
EXTT13=
EXTT14=
PLAYORDER=
